HIERARCHY
ROOT Hips
{
	OFFSET 0.000000 0.000000 0.000000
	CHANNELS 6 Xposition Yposition Zposition Zrotation Xrotation Yrotation
	JOINT RightUpLeg
	{
		OFFSET -10.795800 0.000000 0.000000
		CHANNELS 3 Zrotation Xrotation Yrotation
		JOINT RightLeg
		{
			OFFSET 0.000000 -39.557900 0.000000
			CHANNELS 3 Zrotation Xrotation Yrotation
			JOINT RightFoot
			{
				OFFSET 0.000000 -40.613400 0.000000
				CHANNELS 3 Zrotation Xrotation Yrotation
				JOINT RightToe
				{
					OFFSET 0.000000 -1.003500 12.392200
					CHANNELS 3 Zrotation Xrotation Yrotation
					JOINT RightToeEnd
					{
						OFFSET 0.000000 1.088300 5.767000
						CHANNELS 3 Zrotation Xrotation Yrotation
						End Site
						{
						    OFFSET 0.000000 0.927200 4.913300
						}
					}
				}
			}
		}
	}
	JOINT LeftUpLeg
	{
		OFFSET 10.795800 0.000000 0.000000
		CHANNELS 3 Zrotation Xrotation Yrotation
		JOINT LeftLeg
		{
			OFFSET 0.000000 -39.557900 0.000000
			CHANNELS 3 Zrotation Xrotation Yrotation
			JOINT LeftFoot
			{
				OFFSET 0.000000 -40.613400 0.000000
				CHANNELS 3 Zrotation Xrotation Yrotation
				JOINT LeftToe
				{
					OFFSET 0.000000 -1.003500 12.392200
					CHANNELS 3 Zrotation Xrotation Yrotation
					JOINT LeftToeEnd
					{
						OFFSET 0.000000 1.088300 5.767000
						CHANNELS 3 Zrotation Xrotation Yrotation
						End Site
						{
						    OFFSET 0.000000 0.927200 4.913300
						}
					}
				}
			}
		}
	}
	JOINT Spine
	{
		OFFSET 0.000000 15.108100 0.000000
		CHANNELS 3 Zrotation Xrotation Yrotation
		JOINT Spine1
		{
			OFFSET 0.000000 12.828000 0.000000
			CHANNELS 3 Zrotation Xrotation Yrotation
			JOINT Spine2
			{
				OFFSET 0.000000 11.155500 0.000000
				CHANNELS 3 Zrotation Xrotation Yrotation
				JOINT LeftShoulder
				{
					OFFSET 2.000000 11.155500 0.000000
					CHANNELS 3 Zrotation Xrotation Yrotation
					JOINT LeftArm
					{
						OFFSET 15.139800 0.000000 0.000000
						CHANNELS 3 Zrotation Xrotation Yrotation
						JOINT LeftForeArm
						{
							OFFSET 0.000000 -26.627300 0.000000
							CHANNELS 3 Zrotation Xrotation Yrotation
							JOINT LeftHand
							{
								OFFSET 0.000000 -24.932400 0.000000
								CHANNELS 3 Zrotation Xrotation Yrotation
								JOINT LeftFinger0
								{
									OFFSET 0.000000 -8.640100 0.000000
									CHANNELS 3 Zrotation Xrotation Yrotation
									End Site
									{
									    OFFSET 0.000000 -5.000000 0.000000
									}
								}
							}
						}
					}
				}
				JOINT RightShoulder
				{
					OFFSET -2.000000 11.155500 0.000000
					CHANNELS 3 Zrotation Xrotation Yrotation
					JOINT RightArm
					{
						OFFSET -15.139800 0.000000 0.000000
						CHANNELS 3 Zrotation Xrotation Yrotation
						JOINT RightForeArm
						{
							OFFSET 0.000000 -26.627300 0.000000
							CHANNELS 3 Zrotation Xrotation Yrotation
							JOINT RightHand
							{
								OFFSET 0.000000 -24.932400 0.000000
								CHANNELS 3 Zrotation Xrotation Yrotation
								JOINT RightFinger0
								{
									OFFSET 0.000000 -8.640100 0.000000
									CHANNELS 3 Zrotation Xrotation Yrotation
									End Site
									{
									    OFFSET 0.000000 -5.000000 0.000000
									}
								}
							}
						}
					}
				}
				JOINT Neck
				{
					OFFSET 0.000000 11.155500 0.000000
					CHANNELS 3 Zrotation Xrotation Yrotation
					JOINT Head
					{
						OFFSET 0.000000 10.940000 0.000000
						CHANNELS 3 Zrotation Xrotation Yrotation
						JOINT HeadTip
						{
							OFFSET 0.000000 10.000000 0.000000
							CHANNELS 3 Zrotation Xrotation Yrotation
							End Site
							{
							    OFFSET 0.000000 5.000000 0.000000
							}
						}
					}
				}
			}
		}
	}
}
MOTION
Frames:	10
Frame Time:	0.033332
56.127900 86.502200 -19.954100 -0.499190 -2.838807 0.025568 -0.711503 0.509082 -8.626648 0.000000 7.921099 -0.000000 10.539325 3.839760 -15.431292 -0.000000 0.113829 0.000000 0.000000 0.000000 0.000000 0.454904 0.166157 1.933162 -0.000000 7.315987 -0.000000 -8.082402 7.318776 17.985475 0.000000 -7.118024 -0.000000 0.000000 -0.000000 -0.000000 -0.458756 3.365396 -1.843819 0.000000 3.334769 -0.000000 -0.000000 0.000000 -0.000000 -0.775948 -0.000000 7.993235 62.389643 -6.810099 17.073644 -0.000000 -31.149047 -0.000000 -3.342904 10.570283 -28.225766 -0.000000 -0.000000 -0.000000 -1.246036 -0.000000 -8.498810 -60.057108 -9.070494 -17.133535 -0.000075 -26.189644 -0.000017 2.511375 6.865974 18.184099 0.000000 -0.000000 -0.000000 -0.000000 0.000000 -0.000000 3.451473 14.747744 -3.062404 -0.000000 0.000000 0.000000 
56.142900 86.502100 -19.960700 -0.509541 -2.830672 -0.026926 -0.713008 0.506494 -8.521394 -0.000000 7.889160 -0.000000 10.591283 3.865972 -15.458942 0.000000 0.084735 -0.000000 -0.000000 0.000000 -0.000000 0.453825 0.171350 1.945419 0.000000 7.294277 -0.000000 -8.091226 7.314690 18.016207 -0.000000 -7.095718 -0.000000 -0.000000 0.000000 -0.000000 -0.467750 3.338600 -1.821047 -0.000000 3.352785 -0.000000 -0.000000 0.000000 0.000000 -0.772301 -0.000000 8.058468 62.397568 -6.791843 17.434188 -0.000000 -31.126835 -0.000000 -3.345065 10.562245 -28.240857 -0.000000 0.000000 -0.000000 -1.262861 0.000000 -8.498827 -60.086609 -9.018810 -17.056965 -0.000075 -26.228127 -0.000017 2.610655 6.884240 18.142752 0.000000 0.000000 -0.000000 -0.000000 0.000000 0.000000 3.431430 14.726127 -3.091917 0.000000 -0.000000 0.000000 
56.165000 86.499900 -19.969000 -0.511545 -2.834526 -0.056427 -0.730839 0.499606 -8.524168 -0.000000 7.891093 -0.000000 10.637413 3.923548 -15.424390 -0.000000 -0.106327 -0.000000 -0.000000 0.000000 0.000000 0.436450 0.177279 1.966715 0.000000 7.287918 -0.000000 -8.029304 7.309599 18.040372 -0.000000 -7.100980 -0.000000 0.000000 0.000000 -0.000000 -0.472237 3.337602 -1.817056 0.000000 3.348047 -0.000000 0.000000 -0.000000 -0.000000 -0.775483 0.000000 8.095397 62.413213 -6.749635 17.698108 0.000000 -31.114216 -0.000000 -3.257313 10.627094 -28.013676 -0.000000 0.000000 -0.000000 -1.260714 0.000000 -8.529355 -60.140731 -9.026837 -17.132720 -0.000075 -26.206898 -0.000017 2.645605 6.835444 18.279771 -0.000000 -0.000000 0.000000 0.000000 -0.000000 -0.000000 3.416338 14.716772 -3.105994 0.000000 0.000000 -0.000000 
56.183900 86.500200 -19.968900 -0.518284 -2.839788 -0.058316 -0.734946 0.514595 -8.507392 0.000000 7.872219 -0.000000 10.635929 3.877309 -15.430356 0.000000 0.094705 -0.000000 0.000000 0.000000 -0.000000 0.431130 0.188842 1.971491 0.000000 7.279848 -0.000000 -8.043252 7.315296 18.040113 0.000000 -7.169440 0.000000 0.000000 0.000000 -0.000000 -0.480131 3.327001 -1.849604 -0.000000 3.339965 -0.000000 0.000000 0.000000 0.000000 -0.791529 0.000000 8.127316 62.474731 -6.712523 17.923267 -0.000000 -31.035976 -0.000000 -3.193485 10.665441 -28.003497 0.000000 0.000000 0.000000 -1.269321 -0.000000 -8.550816 -60.139791 -9.015113 -17.198376 -0.000075 -26.238993 -0.000017 2.549347 6.807477 18.224460 -0.000000 0.000000 -0.000000 0.000000 0.000000 0.000000 3.414462 14.745250 -3.123768 -0.000000 0.000000 -0.000000 
56.205400 86.499700 -19.973600 -0.525112 -2.869123 -0.075518 -0.740504 0.530224 -8.526707 -0.000000 7.880640 -0.000000 10.582695 3.898345 -15.433891 -0.000000 0.110586 -0.000000 -0.000000 0.000000 -0.000000 0.424214 0.206379 1.961892 -0.000000 7.300555 -0.000000 -8.049198 7.296942 18.052513 0.000000 -7.146568 0.000000 -0.000000 0.000000 0.000000 -0.486143 3.351929 -1.865552 -0.000000 3.343167 0.000000 -0.000000 0.000000 -0.000000 -0.792386 -0.000000 8.151215 62.554303 -6.710840 18.027251 0.000000 -30.877307 0.000000 -3.285896 10.648556 -27.879802 -0.000000 0.000000 0.000000 -1.278749 -0.000000 -8.574046 -60.153562 -9.035706 -17.251416 -0.000075 -26.198369 -0.000017 2.460352 6.769467 18.114814 0.000000 0.000000 -0.000000 -0.000000 0.000000 -0.000000 3.427768 14.722951 -3.139805 -0.000000 0.000000 -0.000000 
56.226400 86.498800 -19.978600 -0.523959 -2.906538 -0.079447 -0.750777 0.550256 -8.518627 -0.000000 7.897378 -0.000000 10.639948 3.960720 -15.473781 0.000000 -0.142953 -0.000000 -0.000000 0.000000 -0.000000 0.410549 0.233276 1.980133 -0.000000 7.317027 -0.000000 -8.037672 7.300366 18.016950 -0.000000 -7.171583 -0.000000 -0.000000 0.000000 -0.000000 -0.510751 3.397509 -1.872310 -0.000000 3.329989 0.000000 -0.000000 0.000000 -0.000000 -0.791838 0.000000 8.175892 62.651168 -6.805237 18.119137 -0.000000 -30.651652 -0.000000 -3.229562 10.690517 -27.949789 0.000000 0.000000 0.000000 -1.266498 0.000000 -8.589573 -60.179932 -9.027241 -17.297445 -0.000075 -26.146371 -0.000017 2.575633 6.691746 18.113560 0.000000 0.000000 0.000000 -0.000000 0.000000 -0.000000 3.467325 14.698227 -3.183138 -0.000000 -0.000000 -0.000000 
56.249600 86.498900 -19.983100 -0.528939 -2.915883 -0.077773 -0.770774 0.537082 -8.515158 -0.000000 7.943972 -0.000000 10.668926 3.907307 -15.427947 0.000000 -0.011938 -0.000000 0.000000 0.000000 -0.000000 0.399988 0.235589 1.986075 -0.000000 7.325466 -0.000000 -8.028678 7.297523 18.020348 -0.000000 -7.179482 -0.000000 -0.000000 0.000000 0.000000 -0.524531 3.389857 -1.864773 -0.000000 3.336330 -0.000000 0.000000 0.000000 -0.000000 -0.837574 -0.000000 8.224409 62.842105 -7.041522 18.117018 -0.000000 -30.277275 -0.000000 -3.225940 10.669636 -27.925723 0.000000 0.000000 -0.000000 -1.289844 -0.000000 -8.596671 -60.173604 -8.953103 -17.116095 -0.000075 -26.166452 -0.000017 2.689593 6.729994 17.904413 -0.000000 0.000000 -0.000000 0.000000 0.000000 -0.000000 3.505217 14.679888 -3.264904 0.000000 -0.000000 -0.000000 
56.278000 86.497600 -19.994700 -0.515123 -2.887549 -0.064230 -0.809872 0.469797 -8.572867 -0.000000 8.014255 -0.000000 10.678238 3.885808 -15.402906 0.000000 0.026018 -0.000000 0.000000 0.000000 -0.000000 0.367660 0.188958 1.997573 0.000000 7.337381 -0.000000 -8.051165 7.264886 17.994230 0.000000 -7.080477 -0.000000 0.000000 0.000000 -0.000000 -0.555352 3.336430 -1.849636 -0.000000 3.335712 0.000000 0.000000 0.000000 -0.000000 -0.899297 -0.000000 8.208586 63.087652 -7.277737 18.104252 0.000000 -29.868806 -0.000000 -3.279808 10.728716 -27.972174 0.000000 -0.000000 -0.000000 -1.351851 0.000000 -8.608519 -60.091785 -8.899479 -17.011906 -0.000075 -26.119684 -0.000017 2.793015 6.708978 17.731254 0.000000 0.000000 0.000000 0.000000 0.000000 -0.000000 3.538963 14.692110 -3.343231 -0.000000 -0.000000 -0.000000 
56.295600 86.496200 -19.995700 -0.510417 -2.922573 -0.076889 -0.820002 0.492076 -8.545700 0.000000 8.021611 -0.000000 10.628917 3.888157 -15.433800 0.000000 0.011900 -0.000000 0.000000 0.000000 -0.000000 0.351087 0.231105 2.013991 0.000000 7.327753 -0.000000 -8.017678 7.275556 17.990821 0.000000 -7.139899 -0.000000 -0.000000 0.000000 0.000000 -0.591257 3.347456 -1.834177 0.000000 3.337393 0.000000 0.000000 0.000000 -0.000000 -0.932879 -0.000000 8.183038 63.299547 -7.446101 18.092101 -0.000000 -29.569162 -0.000000 -3.296058 10.720922 -27.869656 0.000000 0.000000 0.000000 -1.365391 0.000000 -8.609870 -60.057629 -8.895834 -16.977288 -0.000074 -26.029197 -0.000017 2.872116 6.645469 17.846245 -0.000000 0.000000 -0.000000 0.000000 0.000000 -0.000000 3.527261 14.730266 -3.395786 -0.000000 0.000000 -0.000000 
56.318800 86.495000 -19.998500 -0.505181 -2.935904 -0.065601 -0.843038 0.510778 -8.526829 -0.000000 8.014230 -0.000000 10.563746 3.910162 -15.452878 -0.000000 -0.007457 -0.000000 -0.000000 0.000000 0.000000 0.330779 0.245704 2.006468 -0.000000 7.318574 0.000000 -7.994736 7.306415 17.992915 -0.000000 -7.163270 0.000000 -0.000000 0.000000 -0.000000 -0.620525 3.334683 -1.857305 -0.000000 3.328378 0.000000 -0.000000 -0.000000 0.000000 -0.926624 -0.000000 8.144439 63.420306 -7.550379 18.194549 -0.000000 -29.403048 -0.000000 -3.351829 10.751076 -27.894859 -0.000000 0.000000 0.000000 -1.340870 -0.000000 -8.634279 -60.072672 -8.925726 -16.861010 -0.000074 -26.008620 -0.000017 2.798327 6.682507 17.637007 -0.000000 0.000000 0.000000 -0.000000 -0.000000 0.000000 3.474896 14.776405 -3.408992 -0.000000 0.000000 -0.000000 
